<?xml version="1.0" encoding="iso-8859-1"?>
<svg fill="#000000" version="1.1" id="Capa_1" xmlns="http://www.w3.org/2000/svg" xmlns:xlink="http://www.w3.org/1999/xlink"
     viewBox="0 0 54.908 54.908" xml:space="preserve">
<g>
	<path d="M6.171,25c-0.391,0.391-0.391,1.023,0,1.414c0.195,0.195,0.451,0.293,0.707,0.293s0.512-0.098,0.707-0.293
		c10.955-10.956,28.781-10.956,39.737,0c0.391,0.391,1.023,0.391,1.414,0s0.391-1.023,0-1.414C37.002,13.266,17.907,13.264,6.171,25
		z"/>
    <path d="M27.454,24.508c-5.825,0-11.295,2.263-15.404,6.371c-0.391,0.391-0.391,1.023,0,1.414s1.023,0.391,1.414,0
		c3.731-3.73,8.699-5.785,13.99-5.785c5.291,0,10.259,2.055,13.99,5.785c0.195,0.195,0.451,0.293,0.707,0.293
		s0.512-0.098,0.707-0.293c0.391-0.391,0.391-1.023,0-1.414C38.75,26.771,33.279,24.508,27.454,24.508z"/>
    <path d="M27.454,33.916c-3.612,0-6.551,2.939-6.551,6.552s2.939,6.552,6.551,6.552c3.613,0,6.552-2.939,6.552-6.552
		S31.067,33.916,27.454,33.916z M27.454,45.019c-2.51,0-4.551-2.042-4.551-4.552s2.042-4.552,4.551-4.552s4.552,2.042,4.552,4.552
		S29.964,45.019,27.454,45.019z"/>
</g>
</svg>